<?xml version="1.0" encoding="utf-8"?>
<!-- Generator: Adobe Illustrator 22.1.0, SVG Export Plug-In . SVG Version: 6.00 Build 0)  -->
<svg version="1.1"
	 id="svg2210" inkscape:version="0.45pre1" sodipodi:modified="true" sodipodi:version="0.32" xmlns:cc="http://web.resource.org/cc/" xmlns:dc="http://purl.org/dc/elements/1.1/" xmlns:inkscape="http://www.inkscape.org/namespaces/inkscape" xmlns:rdf="http://www.w3.org/1999/02/22-rdf-syntax-ns#" xmlns:sodipodi="http://sodipodi.sourceforge.net/DTD/sodipodi-0.dtd" xmlns:svg="http://www.w3.org/2000/svg"
	 xmlns="http://www.w3.org/2000/svg" xmlns:xlink="http://www.w3.org/1999/xlink" x="0px" y="0px" viewBox="0 0 744.1 737.4"
	 style="enable-background:new 0 0 744.1 737.4;" xml:space="preserve">
<style type="text/css">
	.st0{fill:none;stroke:#FFFFFF;stroke-width:8;stroke-miterlimit:10;}
	.st1{fill:none;stroke:url(#SVGID_1_);stroke-width:32;}
	.st2{fill:none;stroke:url(#SVGID_2_);stroke-width:32;}
	.st3{fill:#CC0099;stroke:url(#SVGID_3_);stroke-width:32;}
	.st4{fill:none;stroke:url(#SVGID_4_);stroke-width:32;}
	.st5{fill:none;stroke:url(#SVGID_5_);stroke-width:32;}
	.st6{fill:none;stroke:url(#SVGID_6_);stroke-width:32;}
	.st7{fill:none;stroke:url(#SVGID_7_);stroke-width:32;}
	.st8{fill:none;stroke:url(#SVGID_8_);stroke-width:32;}
	.st9{display:none;}
	.st10{display:inline;}
	.st11{fill:url(#path2586_1_);stroke:url(#path2586_2_);stroke-miterlimit:10;}
	.st12{fill:url(#path2588_1_);stroke:url(#path2588_2_);stroke-miterlimit:10;}
	.st13{fill:url(#path2592_1_);stroke:url(#path2592_2_);stroke-miterlimit:10;}
	.st14{display:inline;fill:url(#path11_1_);stroke:url(#path11_2_);stroke-miterlimit:10;}
	.st15{display:inline;fill:url(#path13_1_);stroke:url(#path13_2_);stroke-miterlimit:10;}
	.st16{display:inline;fill:url(#path15_1_);stroke:url(#path15_2_);stroke-miterlimit:10;}
	.st17{display:inline;fill:url(#path17_1_);stroke:url(#path17_2_);stroke-miterlimit:10;}
	.st18{display:inline;fill:url(#path19_1_);stroke:url(#path19_2_);stroke-miterlimit:10;}
	.st19{fill:url(#path9_1_);stroke:url(#path9_2_);stroke-miterlimit:10;}
</style>
<sodipodi:namedview  bordercolor="#666666" borderopacity="1.0" gridtolerance="10000" guidetolerance="10" height="737.36px" id="base" inkscape:current-layer="layer1" inkscape:cx="635.29724" inkscape:cy="214.05903" inkscape:document-units="px" inkscape:pageopacity="0.0" inkscape:pageshadow="2" inkscape:window-height="573" inkscape:window-width="880" inkscape:window-x="88" inkscape:window-y="116" inkscape:zoom="0.35" objecttolerance="10" pagecolor="#ffffff" width="744.09448px">
	</sodipodi:namedview>
<rect x="404.9" y="76.3" class="st0" width="98.1" height="34"/>
<rect x="408.6" y="135.9" class="st0" width="148.4" height="34"/>
<rect x="348.5" y="280.3" class="st0" width="152.6" height="34"/>
<rect x="352.5" y="354" class="st0" width="167" height="34"/>
<rect x="449.4" y="417" class="st0" width="173.5" height="36.7"/>
<rect x="447.8" y="482.7" class="st0" width="113.5" height="36.7"/>
<rect x="408.6" y="572.7" class="st0" width="139.9" height="36.7"/>
<rect x="364.8" y="205.4" class="st0" width="139.7" height="34"/>
<linearGradient id="SVGID_1_" gradientUnits="userSpaceOnUse" x1="369.7717" y1="460.6338" x2="369.7717" y2="624.0815" gradientTransform="matrix(1.225761e-02 0.9999 0.9999 -1.225761e-02 -9.6339 71.7318)">
	<stop  offset="2.227792e-02" style="stop-color:#0A7FBF"/>
	<stop  offset="0.1634" style="stop-color:#1172B4"/>
	<stop  offset="0.4227" style="stop-color:#225198"/>
	<stop  offset="0.7384" style="stop-color:#3C206E"/>
	<stop  offset="0.9208" style="stop-color:#333366"/>
</linearGradient>
<line class="st1" x1="455.5" y1="435.6" x2="618.9" y2="434"/>
<linearGradient id="SVGID_2_" gradientUnits="userSpaceOnUse" x1="9.4287" y1="358.3857" x2="9.4287" y2="488.2873" gradientTransform="matrix(5.354565e-04 -1 -1 -5.354565e-04 859.5047 232.1054)">
	<stop  offset="2.227792e-02" style="stop-color:#0A7FBF"/>
	<stop  offset="0.1634" style="stop-color:#1172B4"/>
	<stop  offset="0.4227" style="stop-color:#225198"/>
	<stop  offset="0.7384" style="stop-color:#3C206E"/>
	<stop  offset="0.9208" style="stop-color:#333366"/>
</linearGradient>
<line class="st2" x1="501.1" y1="222.5" x2="371.2" y2="222.4"/>
<linearGradient id="SVGID_3_" gradientUnits="userSpaceOnUse" x1="138.8863" y1="307.2238" x2="138.8863" y2="437.1331" gradientTransform="matrix(5.354282e-04 -1 -0.7817 -4.185912e-04 741.208 232.0421)">
	<stop  offset="2.227792e-02" style="stop-color:#0A7FBF"/>
	<stop  offset="0.1634" style="stop-color:#1172B4"/>
	<stop  offset="0.4227" style="stop-color:#225198"/>
	<stop  offset="0.7384" style="stop-color:#3C206E"/>
	<stop  offset="0.9208" style="stop-color:#333366"/>
</linearGradient>
<line class="st3" x1="501.1" y1="93" x2="399.6" y2="93"/>
<linearGradient id="SVGID_4_" gradientUnits="userSpaceOnUse" x1="492.05" y1="503.117" x2="484.0599" y2="617.3795" gradientTransform="matrix(1.695986e-04 1 1 -1.695986e-04 -100.2457 -116.9103)">
	<stop  offset="0" style="stop-color:#000000"/>
	<stop  offset="0.7517" style="stop-color:#669999"/>
</linearGradient>
<line class="st4" x1="403.8" y1="371" x2="516.4" y2="371"/>
<linearGradient id="SVGID_5_" gradientUnits="userSpaceOnUse" x1="621.9899" y1="547.1342" x2="614.1105" y2="659.816" gradientTransform="matrix(1.695986e-04 1 1 -1.695986e-04 -100.2457 -116.9103)">
	<stop  offset="0" style="stop-color:#000000"/>
	<stop  offset="0.7517" style="stop-color:#669999"/>
</linearGradient>
<line class="st5" x1="447.8" y1="501" x2="558.8" y2="501"/>
<linearGradient id="SVGID_6_" gradientUnits="userSpaceOnUse" x1="671.4538" y1="498.7849" x2="660.2175" y2="659.4703" gradientTransform="matrix(-1.112028e-02 0.9999 0.9999 1.112028e-02 -94.3654 -520.0091)">
	<stop  offset="0" style="stop-color:#000000"/>
	<stop  offset="0.7517" style="stop-color:#669999"/>
</linearGradient>
<line class="st6" x1="397.7" y1="151.5" x2="556.9" y2="152.9"/>
<linearGradient id="SVGID_7_" gradientUnits="userSpaceOnUse" x1="613.8119" y1="507.5521" x2="613.8119" y2="562.8759" gradientTransform="matrix(2.620894e-03 1 2.8177 -7.385728e-03 -1089.9453 -312.7848)">
	<stop  offset="0" style="stop-color:#000000"/>
	<stop  offset="0.1898" style="stop-color:#483401"/>
	<stop  offset="0.3773" style="stop-color:#886201"/>
	<stop  offset="0.5463" style="stop-color:#B98601"/>
	<stop  offset="0.6935" style="stop-color:#DD9F02"/>
	<stop  offset="0.8131" style="stop-color:#F3AF02"/>
	<stop  offset="0.8903" style="stop-color:#FBB502"/>
	<stop  offset="0.9208" style="stop-color:#FBB501"/>
</linearGradient>
<line class="st7" x1="341.8" y1="297.3" x2="497.7" y2="296.9"/>
<linearGradient id="SVGID_8_" gradientUnits="userSpaceOnUse" x1="332.6849" y1="511.5468" x2="332.6849" y2="660.0741" gradientTransform="matrix(1.544495e-02 0.9999 0.9999 -1.544495e-02 -119.0184 266.4962)">
	<stop  offset="0" style="stop-color:#000000"/>
	<stop  offset="0.1898" style="stop-color:#483401"/>
	<stop  offset="0.3773" style="stop-color:#886201"/>
	<stop  offset="0.5463" style="stop-color:#B98601"/>
	<stop  offset="0.6935" style="stop-color:#DD9F02"/>
	<stop  offset="0.8131" style="stop-color:#F3AF02"/>
	<stop  offset="0.8903" style="stop-color:#FBB502"/>
	<stop  offset="0.9208" style="stop-color:#FBB501"/>
</linearGradient>
<line class="st8" x1="397.7" y1="591" x2="546.1" y2="589.2"/>
<g id="layer1" inkscape:groupmode="layer" inkscape:label="Layer 1">
	<g id="g2582" transform="translate(5289.8842,1126.6098)" class="st9">
		<g id="g2584" class="st10">
			<linearGradient id="path2586_1_" gradientUnits="userSpaceOnUse" x1="208.3902" y1="66.9" x2="221.8098" y2="66.9">
				<stop  offset="0.2071" style="stop-color:#00FF66"/>
				<stop  offset="0.8177" style="stop-color:#000000"/>
			</linearGradient>
			<linearGradient id="path2586_2_" gradientUnits="userSpaceOnUse" x1="207.8902" y1="66.9" x2="222.3098" y2="66.9">
				<stop  offset="0" style="stop-color:#FFFFFF"/>
				<stop  offset="0.3688" style="stop-color:#2B210C"/>
				<stop  offset="0.6238" style="stop-color:#000000"/>
				<stop  offset="0.6658" style="stop-color:#231903"/>
				<stop  offset="0.7087" style="stop-color:#231903"/>
				<stop  offset="0.8474" style="stop-color:#231903"/>
			</linearGradient>
			<path id="path2586" class="st11" d="M214.6,62.6c3.6,0,6.9,1.4,7.2,4.4c0.2,2.2-2.7,4.2-6.2,4.2c-3.6,0-6.9-1.3-7.2-4.3
				C208.2,64.6,211.1,62.6,214.6,62.6z M215.5,70.4c1.5,0,2.5-1.5,2.4-2.7c-0.4-2.3-1.2-4.2-3.3-4.2c-1.5,0-2.4,1.5-2.2,2.7
				C212.7,68.5,213.4,70.4,215.5,70.4z"/>
			<linearGradient id="path2588_1_" gradientUnits="userSpaceOnUse" x1="214.8" y1="23.8" x2="215.4" y2="23.8">
				<stop  offset="0.2071" style="stop-color:#00FF66"/>
				<stop  offset="0.8177" style="stop-color:#000000"/>
			</linearGradient>
			<linearGradient id="path2588_2_" gradientUnits="userSpaceOnUse" x1="214.3" y1="23.8" x2="215.9" y2="23.8">
				<stop  offset="0" style="stop-color:#FFFFFF"/>
				<stop  offset="0.3688" style="stop-color:#2B210C"/>
				<stop  offset="0.6238" style="stop-color:#000000"/>
				<stop  offset="0.6658" style="stop-color:#231903"/>
				<stop  offset="0.7087" style="stop-color:#231903"/>
				<stop  offset="0.8474" style="stop-color:#231903"/>
			</linearGradient>
			<path id="path2588" class="st12" d="M215.4,36h-0.6V11.6h0.6V36z"/>
		</g>
		<g id="g2590" class="st10">
			<linearGradient id="path2592_1_" gradientUnits="userSpaceOnUse" x1="209" y1="106.5" x2="221.6" y2="106.5">
				<stop  offset="0.2071" style="stop-color:#00FF66"/>
				<stop  offset="0.8177" style="stop-color:#000000"/>
			</linearGradient>
			<linearGradient id="path2592_2_" gradientUnits="userSpaceOnUse" x1="208.5" y1="106.5" x2="222.1" y2="106.5">
				<stop  offset="0" style="stop-color:#FFFFFF"/>
				<stop  offset="0.3688" style="stop-color:#2B210C"/>
				<stop  offset="0.6238" style="stop-color:#000000"/>
				<stop  offset="0.6658" style="stop-color:#231903"/>
				<stop  offset="0.7087" style="stop-color:#231903"/>
				<stop  offset="0.8474" style="stop-color:#231903"/>
			</linearGradient>
			<path id="path2592" class="st13" d="M218.2,101l0.7-1.3h0.6l0.3,5.2h-0.6c-0.4-1.5-1-2.6-1.6-3.2c-0.8-0.8-1.6-1.3-2.6-1.3
				c-0.8,0-1.4,0.2-2,0.6s-1.1,1.1-1.4,1.9c-0.3,0.9-0.5,2.1-0.5,3.6s0.2,2.7,0.5,3.5s0.8,1.5,1.3,1.9c0.6,0.4,1.2,0.6,2,0.6
				c1,0,1.8-0.3,2.4-0.9s0.8-1.3,0.8-2.2v-1.2c0-0.2-0.1-0.3-0.2-0.4c-0.1-0.1-0.4-0.2-0.7-0.2h-1.1V107h5.5v0.6h-0.7
				c-0.3,0-0.6,0.1-0.7,0.2c-0.1,0.1-0.2,0.3-0.2,0.5v5h-0.6c-0.2-0.8-0.4-1.5-0.7-2.2c-0.4,0.7-1,1.3-1.6,1.6
				c-0.6,0.4-1.3,0.5-2.1,0.5c-1.1,0-2.1-0.3-3-0.8c-0.9-0.6-1.7-1.4-2.2-2.4s-0.8-2.2-0.8-3.5s0.3-2.5,0.8-3.5s1.3-1.8,2.2-2.4
				s1.9-0.9,2.9-0.9c0.6,0,1.1,0.1,1.6,0.3C217,100.2,217.6,100.5,218.2,101z"/>
		</g>
	</g>
	<g id="g2690" transform="translate(0,-31.428571)">
		<g class="st9">
			<linearGradient id="path11_1_" gradientUnits="userSpaceOnUse" x1="35.9" y1="383" x2="700.1" y2="383">
				<stop  offset="0.2071" style="stop-color:#00FF66"/>
				<stop  offset="0.8177" style="stop-color:#000000"/>
			</linearGradient>
			<linearGradient id="path11_2_" gradientUnits="userSpaceOnUse" x1="35.9" y1="383" x2="700.1" y2="383">
				<stop  offset="0" style="stop-color:#FFFFFF"/>
				<stop  offset="0.3688" style="stop-color:#2B210C"/>
				<stop  offset="0.6238" style="stop-color:#000000"/>
				<stop  offset="0.6658" style="stop-color:#231903"/>
				<stop  offset="0.7087" style="stop-color:#231903"/>
				<stop  offset="0.8474" style="stop-color:#231903"/>
			</linearGradient>
			<path id="path11" class="st14" d="M35.9,383h664.2"/>
			<linearGradient id="path13_1_" gradientUnits="userSpaceOnUse" x1="35.9" y1="586.5" x2="702.8" y2="586.5">
				<stop  offset="0.2071" style="stop-color:#00FF66"/>
				<stop  offset="0.8177" style="stop-color:#000000"/>
			</linearGradient>
			<linearGradient id="path13_2_" gradientUnits="userSpaceOnUse" x1="35.9" y1="586.5" x2="702.8" y2="586.5">
				<stop  offset="0" style="stop-color:#FFFFFF"/>
				<stop  offset="0.3688" style="stop-color:#2B210C"/>
				<stop  offset="0.6238" style="stop-color:#000000"/>
				<stop  offset="0.6658" style="stop-color:#231903"/>
				<stop  offset="0.7087" style="stop-color:#231903"/>
				<stop  offset="0.8474" style="stop-color:#231903"/>
			</linearGradient>
			<path id="path13" class="st15" d="M35.9,586.5h666.9"/>
			<linearGradient id="path15_1_" gradientUnits="userSpaceOnUse" x1="35.9" y1="484.7" x2="700.1" y2="484.7">
				<stop  offset="0.2071" style="stop-color:#00FF66"/>
				<stop  offset="0.8177" style="stop-color:#000000"/>
			</linearGradient>
			<linearGradient id="path15_2_" gradientUnits="userSpaceOnUse" x1="35.9" y1="484.7" x2="700.1" y2="484.7">
				<stop  offset="0" style="stop-color:#FFFFFF"/>
				<stop  offset="0.3688" style="stop-color:#2B210C"/>
				<stop  offset="0.6238" style="stop-color:#000000"/>
				<stop  offset="0.6658" style="stop-color:#231903"/>
				<stop  offset="0.7087" style="stop-color:#231903"/>
				<stop  offset="0.8474" style="stop-color:#231903"/>
			</linearGradient>
			<path id="path15" class="st16" d="M35.9,484.7h664.2"/>
			<linearGradient id="path17_1_" gradientUnits="userSpaceOnUse" x1="35.9" y1="281.2" x2="697.4" y2="281.2">
				<stop  offset="0.2071" style="stop-color:#00FF66"/>
				<stop  offset="0.8177" style="stop-color:#000000"/>
			</linearGradient>
			<linearGradient id="path17_2_" gradientUnits="userSpaceOnUse" x1="35.9" y1="281.2" x2="697.4" y2="281.2">
				<stop  offset="0" style="stop-color:#FFFFFF"/>
				<stop  offset="0.3688" style="stop-color:#2B210C"/>
				<stop  offset="0.6238" style="stop-color:#000000"/>
				<stop  offset="0.6658" style="stop-color:#231903"/>
				<stop  offset="0.7087" style="stop-color:#231903"/>
				<stop  offset="0.8474" style="stop-color:#231903"/>
			</linearGradient>
			<path id="path17" class="st17" d="M35.9,281.2h661.5"/>
			<linearGradient id="path19_1_" gradientUnits="userSpaceOnUse" x1="35.9" y1="179.5" x2="697.4" y2="179.5">
				<stop  offset="0.2071" style="stop-color:#00FF66"/>
				<stop  offset="0.8177" style="stop-color:#000000"/>
			</linearGradient>
			<linearGradient id="path19_2_" gradientUnits="userSpaceOnUse" x1="35.9" y1="179.5" x2="697.4" y2="179.5">
				<stop  offset="0" style="stop-color:#FFFFFF"/>
				<stop  offset="0.3688" style="stop-color:#2B210C"/>
				<stop  offset="0.6238" style="stop-color:#000000"/>
				<stop  offset="0.6658" style="stop-color:#231903"/>
				<stop  offset="0.7087" style="stop-color:#231903"/>
				<stop  offset="0.8474" style="stop-color:#231903"/>
			</linearGradient>
			<path id="path19" class="st18" d="M35.9,179.5h661.5"/>
		</g>
		<g id="g2686">
			<linearGradient id="path9_1_" gradientUnits="userSpaceOnUse" x1="217.8" y1="393.45" x2="465.8" y2="393.45">
				<stop  offset="0" style="stop-color:#B06600"/>
				<stop  offset="0.4273" style="stop-color:#AE6500"/>
				<stop  offset="0.5813" style="stop-color:#A76100"/>
				<stop  offset="0.691" style="stop-color:#9C5A00"/>
				<stop  offset="0.7797" style="stop-color:#8B5000"/>
				<stop  offset="0.8557" style="stop-color:#754300"/>
				<stop  offset="0.9229" style="stop-color:#593400"/>
				<stop  offset="0.9823" style="stop-color:#3A2100"/>
				<stop  offset="1" style="stop-color:#2F1B00"/>
			</linearGradient>
			<linearGradient id="path9_2_" gradientUnits="userSpaceOnUse" x1="217.2999" y1="393.45" x2="466.3" y2="393.45">
				<stop  offset="0" style="stop-color:#FFFFFF"/>
				<stop  offset="0.3688" style="stop-color:#2B210C"/>
				<stop  offset="0.6238" style="stop-color:#000000"/>
				<stop  offset="0.6658" style="stop-color:#231903"/>
				<stop  offset="0.7087" style="stop-color:#231903"/>
				<stop  offset="0.8474" style="stop-color:#231903"/>
			</linearGradient>
			<path id="path9" class="st19" d="M359.2,431.7c-0.2-1.2-1.5-1.9-2.6-1.5c-9.7,3.2-18.5,9.5-26.7,18.8
				c-8.8,10.2-13.1,21.4-13.1,33.4c0,7.6,2.6,16.2,7.6,25.3c5,9.2,12.5,15.9,22.3,20.3c0.1,0.1,0.2,0.1,0.4,0.1
				c3.2,0.7,4.6,2.4,4.6,4.8c0,0.8-1.1,1.6-3.6,2.3c-0.3,0.1-0.7,0.1-1,0c-15.5-4-28.3-12.4-38.2-24.9c-10-12.8-15.2-27.2-15.5-43.8
				c0.5-17.7,5.9-34.3,16.1-49.5c10-14.9,22.8-25.5,38.4-32c0.9-0.4,1.4-1.3,1.2-2.2l-11-56.2c-0.3-1.5-2.1-2.1-3.3-1.2
				c-25.4,21.4-46.1,43.6-62.3,66.9c-16.8,24-25.4,50-26.1,78.1c0.3,12.6,2.9,24.8,7.8,36.5c4.8,11.9,12.1,22.6,21.8,32.4
				c19.5,19.4,44.8,29.6,75.7,30.7c0.1,0,0.2,0,0.2,0c10-0.7,20.5-2.4,31.9-5.2c1-0.3,1.7-1.3,1.5-2.3L359.2,431.7z M371.7,430.2
				l26,127.7c0.3,1.3,1.6,1.9,2.8,1.4c25-11.1,37.6-33.9,37.6-68.3c0-0.1,0-0.2,0-0.3c-1.6-11.8-5-22.5-10.9-31.9
				c-5.7-9.6-13.3-17.2-23-22.7c-9-5.1-19.1-7.9-30.4-8.2C372.4,427.8,371.4,428.9,371.7,430.2z M334.9,246.2c0.4,1.2,1.9,1.7,3,1
				c5.2-3.6,11-9.1,17.2-16.5c7.1-8.3,14-18.1,20.6-29.1c6.7-11.2,12.1-22.6,16.1-34.1c4-11.4,5.9-22.2,5.9-32.2
				c0-4.3-0.3-8.6-1.2-12.3c0-0.1,0-0.1,0-0.2c-0.7-6.2-2.6-11-5.9-14.2c-3.3-3.1-7.4-4.8-12.6-4.8c-10.4,0-19.7,6.4-28,19.1
				c-6.4,11-11.7,24.1-15.5,38.9c-4,15-6.2,29.8-6.6,44.8c0,0,0,0.1,0,0.2C328.6,222.4,331.1,235.6,334.9,246.2z M317.7,121.1
				c0,0,7.7-21.7,15.2-36.8c8.7-17.7,17.7-29.5,22-32.8c7.4-5.5,12.8-8.4,15.7-8.4c2.2,0,4.1,0.9,5.9,2.4c1.7,1.5,3.9,4.1,6.7,7.5
				l0.1,0.1c20.5,29.1,30.9,64.2,30.9,105.2c0,19.5-2.6,38.4-7.8,57.4c-5,18.8-12.4,36.7-22.3,53.4c-9.8,16.5-21.3,30.9-34.6,43.4
				c-0.5,0.5-0.7,1.2-0.6,1.9l13.4,65c0.2,1,1.2,1.7,2.2,1.6c6.6-0.8,11.2-1.3,13.9-1.3c13.1,0,24.9,2.8,35.8,8.3
				s20.2,12.9,27.8,22.4c7.6,9.3,13.5,20,17.6,32.1c4,12.1,6.2,24.6,6.2,37.7c0,20.1-26.9,40.6-8.1,69.3c0.5,0.7,0.4,1.6-0.1,2.3
				c-10.8,15-34,13.3-54.7,20.3c-0.9,0.3-1.5,1.3-1.3,2.2c1.4,8.4,3.8,20,7.1,34.7c3.5,15.9,6,28.4,7.8,37.7
				c1.7,9.3,2.4,18.3,2.4,27.1c0,13.6-3.3,25.7-9.8,36.4c-6.7,10.7-15.7,19-27.1,24.8c-11.2,5.9-23.7,8.8-37.1,8.8
				c-19,0-35.6-5.3-49.7-15.9c-14.1-10.7-21.7-24.9-22.5-43.2c0-0.1,0-0.2,0-0.2c0.5-8,2.4-15.6,5.9-22.8
				c3.5-7.2,8.1-13.1,14.2-17.6c5.8-4.6,12.9-7,21-7.6c0.1,0,0.1,0,0.2,0c6.7,0,13.1,1.9,19.1,5.5c5.9,3.8,10.7,8.8,14.3,15.2
				c3.5,6.4,5.4,13.4,5.4,21c0,10.2-3.5,18.8-10.4,25.8s-15.7,10.7-26.3,10.7l0,0c-1.7,0-2.6,2-1.6,3.3c6.8,8.2,17.1,12.4,30.7,12.4
				c7.8,0,15.7-1.7,23.7-4.8c8.1-3.3,14.9-7.6,20.6-13.1s9.5-11.3,11-17.5c0-0.1,0-0.1,0.1-0.2c2.9-7.1,4.3-16.8,4.3-29
				c0-8.3-0.9-16.5-2.4-24.8c-1.6-8.1-4-19-7.3-32.4c-3-12.1-5.3-21.7-6.7-28.6c-0.2-1.1-1.3-1.8-2.4-1.5
				c-9.7,2.3-19.8,3.5-30.3,3.5c-18.8,0-36.6-3.8-53.4-11.5S270.8,551.8,258,538c-12.6-13.8-22.5-29.3-29.5-46.9
				c-6.9-17.4-10.5-35.7-10.7-54.6c0.7-17.6,4-34.5,10.2-50.3c8.7-24.5,13.6-35.1,19.6-45.9c1.3-2.2,9.1-16.9,34.9-37.9
				c0,0,0.1-0.1,0.1-0.1c10.5-11.2,24.2-25.6,41.5-42.9c0.5-0.5,0.7-1.2,0.5-1.9c-7.6-27.6-11.8-55.6-12.6-84.2
				C312.2,154.7,314.1,137.3,317.7,121.1"/>
		</g>
	</g>
</g>
</svg>
